<svg width="182" height="49" viewBox="0 0 182 49" fill="none" xmlns="http://www.w3.org/2000/svg">
<path d="M17.7012 11.4057V4.02864C24.3443 3.65979 32.0902 8.82372 33.5618 17.6762C34.8495 25.4221 31.7213 30.9549 27.6602 34.2745H16.9672C20.2869 30.586 25.4508 27.2663 26.1885 22.1024C26.9262 15.4631 22.1312 11.7745 17.7012 11.4057Z" fill="#2E75B7"/>
<path d="M16.2333 11.4057V4.02864C9.59015 3.65979 1.84424 8.82372 0.372618 17.6762C-0.915054 25.4221 2.2131 30.9549 6.27426 34.2745H16.9672C13.6475 30.586 8.48361 27.2663 7.74589 22.1024C7.0082 15.4631 11.8033 11.7745 16.2333 11.4057Z" fill="#2E75B7"/>
<path d="M16.9597 26.7396C17.7568 26.7396 18.4662 26.6168 19.0878 26.3712C19.7094 26.1255 20.1982 25.7696 20.5541 25.3034C20.91 24.8372 21.088 24.2682 21.088 23.5964V23.5814C21.088 22.7643 20.8248 22.1276 20.2984 21.6714C19.7771 21.2152 18.9976 20.8743 17.9599 20.6488L16.7793 20.3931C16.3832 20.3029 16.0624 20.1976 15.8168 20.0773C15.5761 19.957 15.3982 19.8166 15.2829 19.6562C15.1726 19.4958 15.1174 19.3128 15.1174 19.1072V19.0922C15.1174 18.8666 15.1876 18.6636 15.328 18.4831C15.4684 18.3026 15.6739 18.1598 15.9446 18.0545C16.2203 17.9442 16.5587 17.8891 16.9597 17.8891C17.3307 17.8891 17.6566 17.9442 17.9373 18.0545C18.218 18.1598 18.4436 18.3177 18.6141 18.5282C18.7895 18.7338 18.8973 18.9894 18.9374 19.2952V19.3253H20.9451V19.2727C20.91 18.641 20.7221 18.0971 20.3812 17.6409C20.0453 17.1797 19.5841 16.8263 18.9976 16.5807C18.411 16.33 17.7267 16.2047 16.9447 16.2047C16.1827 16.2047 15.506 16.33 14.9144 16.5807C14.3279 16.8263 13.8642 17.1772 13.5233 17.6334C13.1874 18.0896 13.0195 18.631 13.0195 19.2576V19.2727C13.0195 19.8091 13.1348 20.2703 13.3654 20.6563C13.601 21.0423 13.9444 21.3631 14.3956 21.6188C14.8467 21.8745 15.4007 22.075 16.0574 22.2204L17.2305 22.476C17.8972 22.6264 18.3559 22.8019 18.6065 23.0024C18.8622 23.1979 18.99 23.4661 18.99 23.807V23.822C18.99 24.0677 18.9173 24.2857 18.772 24.4762C18.6316 24.6617 18.4135 24.8046 18.1178 24.9048C17.827 25.0051 17.456 25.0552 17.0049 25.0552C16.5637 25.0552 16.1927 25.0001 15.892 24.8898C15.5962 24.7795 15.3656 24.6216 15.2002 24.4161C15.0347 24.2105 14.9269 23.9724 14.8768 23.7017L14.8693 23.6641H12.8616V23.7092C12.8916 24.3559 13.0846 24.9048 13.4406 25.356C13.7965 25.8072 14.2778 26.1506 14.8843 26.3862C15.4959 26.6218 16.1877 26.7396 16.9597 26.7396ZM16.5838 27.9728H17.4034V14.9564H16.5838V27.9728Z" fill="#2E75B7"/>
<path d="M26.1885 35.75H7.7459L16.9672 44.9713L26.1885 35.75Z" fill="#2E75B7"/>
<path d="M59.5948 34.7652C57.6107 34.7652 55.9017 34.2839 54.4676 33.3214C53.0533 32.3391 51.9728 31.0328 51.2264 29.4023C50.4995 27.7719 50.1361 26.0039 50.1361 24.0984C50.1361 22.193 50.4995 20.4348 51.2264 18.824C51.9728 17.1935 53.0533 15.897 54.4676 14.9344C55.9017 13.9522 57.6107 13.4611 59.5948 13.4611C62.011 13.4611 63.9852 14.1683 65.5175 15.5827C67.0497 16.9971 68.0417 18.824 68.4935 21.0634H64.0442C63.8084 20.0419 63.2977 19.1874 62.5119 18.4999C61.7458 17.8123 60.793 17.4685 59.6537 17.4685C58.0822 17.4685 56.8937 18.0873 56.0883 19.3249C55.3025 20.5428 54.9096 22.134 54.9096 24.0984C54.9096 26.1021 55.3025 27.713 56.0883 28.9309C56.8937 30.1488 58.0822 30.7578 59.6537 30.7578C60.7734 30.7578 61.7065 30.4238 62.453 29.7559C63.2191 29.088 63.7298 28.2925 63.9852 27.3692H68.3757C67.9435 29.53 66.9613 31.3078 65.4291 32.7026C63.9165 34.0777 61.9717 34.7652 59.5948 34.7652ZM76.4881 34.7652C74.563 34.7652 73.07 34.0384 72.0092 32.5847C70.9681 31.1114 70.4475 29.147 70.4475 26.6915C70.4475 24.2163 70.9877 22.2519 72.0682 20.7982C73.1486 19.3249 74.6415 18.5883 76.547 18.5883C77.8632 18.5883 78.8749 18.8829 79.582 19.4722C80.2892 20.0419 80.7803 20.6214 81.0553 21.2107H81.2911V18.9124H85.9173V34.5H81.2911V31.9954H81.0553C80.7607 32.624 80.2499 33.2428 79.5231 33.8517C78.8159 34.4607 77.8042 34.7652 76.4881 34.7652ZM78.2266 31.0819C79.2677 31.0819 80.0437 30.6498 80.5544 29.7854C81.0652 28.9014 81.3205 27.8603 81.3205 26.662C81.3205 25.4833 81.0652 24.4619 80.5544 23.5975C80.0437 22.7135 79.2677 22.2715 78.2266 22.2715C77.1462 22.2715 76.3506 22.7037 75.8398 23.568C75.3487 24.4127 75.1032 25.4342 75.1032 26.6325C75.1032 27.8505 75.3487 28.9014 75.8398 29.7854C76.3506 30.6498 77.1462 31.0819 78.2266 31.0819ZM95.0875 34.7652C93.7713 34.7652 92.632 34.5196 91.6694 34.0285C90.7068 33.5374 89.9702 32.899 89.4594 32.1132C88.9683 31.3078 88.7228 30.4631 88.7228 29.5791V29.3729H93.1722V29.5497C93.1722 30.0015 93.349 30.4042 93.7026 30.7578C94.0562 31.0917 94.5571 31.2587 95.2053 31.2587C95.7554 31.2587 96.1974 31.131 96.5313 30.8757C96.8653 30.6006 97.0322 30.247 97.0322 29.8149C97.0322 29.422 96.8751 29.1077 96.5608 28.872C96.2465 28.6362 95.8536 28.4791 95.3821 28.4005L93.7026 28.0469C92.5632 27.8505 91.5122 27.3986 90.5497 26.6915C89.5871 25.9646 89.1058 24.8547 89.1058 23.3618C89.1058 21.8492 89.646 20.6804 90.7265 19.8553C91.8265 19.0106 93.2311 18.5883 94.9401 18.5883C96.217 18.5883 97.3171 18.8142 98.2404 19.266C99.1636 19.7178 99.861 20.3169 100.332 21.0634C100.804 21.7902 101.04 22.5662 101.04 23.3912V23.5386H96.5902V23.4502C96.5902 23.0573 96.4429 22.6939 96.1483 22.3599C95.8536 22.026 95.4018 21.859 94.7928 21.859C94.2821 21.859 93.8695 21.9867 93.5552 22.2421C93.2606 22.4778 93.1132 22.8117 93.1132 23.2439C93.1132 24.01 93.7517 24.511 95.0285 24.7467L96.8554 25.1592C98.093 25.4342 99.1342 25.9352 99.9789 26.662C100.843 27.3888 101.275 28.4201 101.275 29.7559C101.275 30.7774 101 31.6712 100.45 32.4374C99.9199 33.1838 99.1833 33.7633 98.2404 34.1759C97.2974 34.5688 96.2465 34.7652 95.0875 34.7652ZM103.726 12.6361H108.323V21.1813H108.558C108.892 20.4544 109.433 19.8455 110.179 19.3544C110.945 18.8436 111.868 18.5883 112.949 18.5883C114.992 18.5883 116.406 19.2365 117.192 20.533C117.978 21.8099 118.371 23.2439 118.371 24.8351V34.5H113.774V25.6307C113.774 24.6092 113.548 23.8038 113.096 23.2144C112.644 22.6251 111.967 22.3305 111.063 22.3305C110.159 22.3305 109.472 22.6349 109 23.2439C108.549 23.8529 108.323 24.6485 108.323 25.6307V34.5H103.726V12.6361ZM129.941 34.7652C128.016 34.7652 126.375 34.2643 125.02 33.2624C123.684 32.2606 122.682 30.9542 122.014 29.3434C121.346 27.7326 121.012 26.0137 121.012 24.1868C121.012 22.301 121.356 20.5428 122.044 18.9124C122.751 17.2819 123.812 15.9658 125.226 14.9639C126.64 13.9621 128.369 13.4611 130.412 13.4611C132.75 13.4611 134.665 14.1192 136.158 15.4354C137.671 16.7319 138.731 18.4311 139.34 20.533H134.508C134.253 19.6098 133.781 18.8731 133.094 18.3231C132.406 17.773 131.522 17.498 130.442 17.498C128.89 17.498 127.701 18.1168 126.876 19.3544C126.051 20.592 125.639 22.2421 125.639 24.3047C125.639 26.4656 126.081 28.1451 126.965 29.3434C127.849 30.5221 129.086 31.1114 130.677 31.1114C132.052 31.1114 133.094 30.689 133.801 29.8443C134.528 28.9996 134.901 28.0076 134.92 26.8683V26.4852H131.06V23.2144H139.429V34.5H136.04V31.5828H135.804C134.645 33.7044 132.691 34.7652 129.941 34.7652ZM150.756 13.8737C152.387 13.8737 153.762 14.2076 154.882 14.8755C156.021 15.5434 156.866 16.4274 157.416 17.5275C157.966 18.6275 158.241 19.816 158.241 21.0929C158.241 22.3501 157.966 23.5189 157.416 24.5994C156.885 25.6601 156.05 26.5147 154.911 27.1629C153.791 27.8112 152.406 28.1353 150.756 28.1353H147.427V34.5H142.918V13.8737H150.756ZM150.02 24.3636C151.08 24.3636 151.974 24.1181 152.701 23.627C153.428 23.1162 153.791 22.2715 153.791 21.0929C153.791 19.9142 153.428 19.0892 152.701 18.6177C151.994 18.1463 151.1 17.9105 150.02 17.9105H147.427V24.3636H150.02ZM167.815 34.7652C166.165 34.7652 164.731 34.4411 163.513 33.7928C162.315 33.1446 161.402 32.2999 160.773 31.2587C160.164 30.1979 159.859 29.0979 159.859 27.9585V27.7228H164.898V27.929C164.898 28.6362 165.154 29.2845 165.664 29.8738C166.175 30.4631 166.922 30.7578 167.904 30.7578C168.748 30.7578 169.426 30.5417 169.937 30.1095C170.448 29.6774 170.703 29.1077 170.703 28.4005C170.703 27.7719 170.477 27.271 170.025 26.8977C169.573 26.5048 169.023 26.2396 168.375 26.1021L166.018 25.6307C164.643 25.3164 163.356 24.727 162.158 23.8627C160.96 22.9984 160.36 21.584 160.36 19.6196C160.36 18.3427 160.665 17.2426 161.274 16.3194C161.902 15.3961 162.767 14.6889 163.867 14.1978C164.967 13.7067 166.214 13.4611 167.609 13.4611C169.2 13.4611 170.575 13.7656 171.734 14.3746C172.893 14.9836 173.767 15.7791 174.357 16.7614C174.946 17.7239 175.241 18.7356 175.241 19.7964V19.9437H170.202V19.8553C170.202 19.2267 169.976 18.6472 169.524 18.1168C169.092 17.5668 168.395 17.2917 167.432 17.2917C166.686 17.2917 166.087 17.498 165.635 17.9105C165.203 18.3231 164.987 18.8633 164.987 19.5312C164.987 20.1794 165.232 20.6902 165.723 21.0634C166.214 21.4367 166.804 21.692 167.491 21.8295L169.878 22.3599C171.43 22.6939 172.756 23.3225 173.856 24.2458C174.956 25.169 175.506 26.5147 175.506 28.2826C175.506 29.5791 175.172 30.7185 174.504 31.7007C173.836 32.6829 172.913 33.4392 171.734 33.9696C170.575 34.5 169.269 34.7652 167.815 34.7652Z" fill="#2E75B7"/>
</svg>
