<svg width="38" height="38" viewBox="0 0 38 38" fill="none" xmlns="http://www.w3.org/2000/svg">
<rect width="38" height="38" rx="12" fill="#EDEEEF"/>
<path d="M24.25 28.75C23.836 28.75 23.5 28.414 23.5 28C23.5 27.586 23.836 27.25 24.25 27.25H24.2507C24.2507 26.836 24.586 26.5 25.0004 26.5C25.4147 26.5 25.75 26.836 25.75 27.25C25.75 28.0773 25.0773 28.75 24.25 28.75V28.75Z" fill="#5C5F62"/>
<path d="M25 28C24.586 28 24.25 27.664 24.25 27.25V19.8944C24.25 19.4804 24.586 19.1444 25 19.1444C25.414 19.1444 25.75 19.4804 25.75 19.8944V27.25C25.75 27.664 25.414 28 25 28Z" fill="#5C5F62"/>
<path d="M24.25 28.75H10.75C10.336 28.75 10 28.414 10 28C10 27.586 10.336 27.25 10.75 27.25H24.25C24.664 27.25 25 27.586 25 28C25 28.414 24.664 28.75 24.25 28.75Z" fill="#5C5F62"/>
<path d="M10.75 28.75C9.92275 28.75 9.25 28.0773 9.25 27.25C9.25 26.836 9.586 26.5 10 26.5C10.414 26.5 10.75 26.836 10.75 27.25V27.2511C11.164 27.2511 11.5 27.5864 11.5 28.0004C11.5 28.4144 11.164 28.75 10.75 28.75Z" fill="#5C5F62"/>
<path d="M10 28C9.586 28 9.25 27.664 9.25 27.25V13.75C9.25 13.336 9.586 13 10 13C10.414 13 10.75 13.336 10.75 13.75V27.25C10.75 27.664 10.414 28 10 28Z" fill="#5C5F62"/>
<path d="M9.99963 14.5C9.58525 14.5 9.25 14.164 9.25 13.75C9.25 12.9227 9.92275 12.25 10.75 12.25C11.164 12.25 11.5 12.586 11.5 13C11.5 13.414 11.164 13.75 10.75 13.75H10.7493C10.7493 14.164 10.414 14.5 9.99963 14.5V14.5Z" fill="#5C5F62"/>
<path d="M18.1056 13.75H10.75C10.336 13.75 10 13.414 10 13C10 12.586 10.336 12.25 10.75 12.25H18.1056C18.5196 12.25 18.8556 12.586 18.8556 13C18.8556 13.414 18.52 13.75 18.1056 13.75Z" fill="#5C5F62"/>
<path d="M17.4741 18.6243C17.2821 18.6243 17.0901 18.5512 16.9439 18.4045C16.651 18.1117 16.651 17.6369 16.9439 17.344L24.2688 10.0192C24.5613 9.72628 25.0368 9.72628 25.3293 10.0192C25.6221 10.312 25.6221 10.7868 25.3293 11.0797L18.0044 18.4045C17.8581 18.5512 17.6658 18.6243 17.4741 18.6243V18.6243Z" fill="#5C5F62"/>
<path d="M16.7507 22C16.6986 22 16.6457 21.9947 16.5929 21.9831C16.1879 21.8965 15.9299 21.4975 16.0169 21.0929L16.741 17.7171C16.8276 17.3117 17.2274 17.0526 17.6316 17.1411C18.0366 17.2277 18.2946 17.6267 18.2076 18.0314L17.4835 21.4071C17.4077 21.7592 17.0969 22 16.7507 22V22Z" fill="#5C5F62"/>
<path d="M20.1258 21.2755C19.9338 21.2755 19.7418 21.2024 19.5955 21.0558C19.3026 20.7629 19.3026 20.2882 19.5955 19.9953L26.9204 12.6704C27.2129 12.3775 27.6884 12.3775 27.9809 12.6704C28.2738 12.9633 28.2738 13.438 27.9809 13.7309L20.656 21.0558C20.5098 21.2024 20.3178 21.2755 20.1258 21.2755Z" fill="#5C5F62"/>
<path d="M16.7493 22C16.4031 22 16.0923 21.7593 16.0165 21.4075C15.9299 21.0025 16.1875 20.6035 16.5925 20.5169L19.9683 19.7924C20.3721 19.7065 20.7719 19.963 20.8589 20.368C20.9455 20.773 20.6879 21.172 20.2829 21.2586L16.9071 21.9831C16.8543 21.9944 16.8014 22 16.7493 22V22Z" fill="#5C5F62"/>
<path d="M26.125 15.2767C25.933 15.2767 25.741 15.2035 25.5948 15.0569L22.9432 12.4053C22.6503 12.1124 22.6503 11.6377 22.9432 11.3448C23.2357 11.0519 23.7112 11.0519 24.0037 11.3448L26.6553 13.9964C26.9482 14.2893 26.9482 14.764 26.6553 15.0569C26.509 15.2035 26.317 15.2767 26.125 15.2767Z" fill="#5C5F62"/>
<path d="M27.4506 13.9506C27.2586 13.9506 27.0666 13.8775 26.92 13.7309C26.6271 13.438 26.6271 12.9629 26.92 12.67C27.1277 12.4626 27.2421 12.1799 27.2421 11.875C27.2421 11.5701 27.1277 11.2874 26.92 11.08C26.5037 10.6634 25.7444 10.6638 25.3289 11.0796C25.036 11.3725 24.5612 11.3725 24.268 11.08C23.9751 10.7871 23.9751 10.312 24.268 10.0191C24.7592 9.52752 25.4185 9.25714 26.1242 9.25714C26.83 9.25714 27.4896 9.52789 27.9805 10.0191C28.4714 10.51 28.7417 11.1689 28.7417 11.875C28.7417 12.5811 28.4714 13.2404 27.9801 13.7313C27.8346 13.8775 27.6426 13.9506 27.4506 13.9506V13.9506Z" fill="#5C5F62"/>
</svg>
