<svg width="24" height="24" viewBox="0 0 24 24" fill="none" xmlns="http://www.w3.org/2000/svg">
<rect width="24" height="24" rx="4" fill="#EDF6FF"/>
<path d="M17.5634 9.16747C17.5244 9.05828 17.4589 8.96511 17.375 8.89971C17.2912 8.83432 17.1928 8.79962 17.0923 8.79999H6.9075C6.80696 8.79962 6.70858 8.83432 6.62476 8.89971C6.54093 8.96511 6.47541 9.05828 6.43645 9.16747C6.39977 9.27829 6.39046 9.39909 6.40961 9.51588C6.42876 9.63267 6.47558 9.74069 6.54467 9.82744L11.6371 15.8271C11.7344 15.938 11.8645 16 11.9999 16C12.1353 16 12.2654 15.938 12.3627 15.8271L17.4551 9.82744C17.5242 9.74069 17.571 9.63267 17.5902 9.51588C17.6093 9.39909 17.6 9.27829 17.5634 9.16747Z" fill="#1F5199"/>
</svg>
