<svg width="17" height="16" viewBox="0 0 17 16" fill="none" xmlns="http://www.w3.org/2000/svg">
<path d="M8.66909 13.3356L12.6994 15.8945C13.2192 16.2224 13.859 15.7346 13.707 15.1348L12.5395 10.5447C12.5079 10.4175 12.513 10.2839 12.554 10.1594C12.595 10.0349 12.6704 9.92454 12.7714 9.84101L16.3859 6.82624C16.8577 6.4344 16.6178 5.64272 16.0021 5.60274L11.284 5.29886C11.1553 5.29137 11.0315 5.24654 10.9279 5.16985C10.8242 5.09317 10.7451 4.98794 10.7003 4.86704L8.94098 0.436842C8.89441 0.308816 8.80957 0.198222 8.69798 0.120071C8.58639 0.0419207 8.45346 0 8.31723 0C8.181 0 8.04807 0.0419207 7.93648 0.120071C7.82489 0.198222 7.74005 0.308816 7.69348 0.436842L5.9342 4.86704C5.88936 4.98794 5.81028 5.09317 5.70661 5.16985C5.60294 5.24654 5.47917 5.29137 5.35044 5.29886L0.632364 5.60274C0.0166147 5.64272 -0.223287 6.4344 0.24852 6.82624L3.86305 9.84101C3.96407 9.92454 4.03944 10.0349 4.08047 10.1594C4.1215 10.2839 4.12652 10.4175 4.09495 10.5447L3.01539 14.799C2.83147 15.5187 3.59915 16.1025 4.2149 15.7106L7.96537 13.3356C8.07054 13.2687 8.1926 13.2332 8.31723 13.2332C8.44186 13.2332 8.56392 13.2687 8.66909 13.3356Z" fill="#222222"/>
</svg>
