<svg width="24" height="24" viewBox="0 0 24 24" fill="none" xmlns="http://www.w3.org/2000/svg">
<path d="M10.8751 12.0003C10.8753 12.6217 11.3791 13.1252 12.0005 13.1249C12.6218 13.1247 13.1253 12.6208 13.1251 11.9995C13.1248 11.3782 12.621 10.8747 11.9996 10.8749C11.3783 10.8752 10.8748 11.379 10.8751 12.0003Z" fill="#8C9196" stroke="#8C9196"/>
<path d="M16.8751 11.9984C16.8753 12.6197 17.3791 13.1232 18.0005 13.123C18.6218 13.1227 19.1253 12.6189 19.1251 11.9976C19.1248 11.3762 18.621 10.8727 17.9996 10.873C17.3783 10.8732 16.8748 11.3771 16.8751 11.9984Z" fill="#8C9196" stroke="#8C9196"/>
<path d="M4.87505 12.0028C4.87528 12.6241 5.37915 13.1276 6.00047 13.1274C6.62179 13.1271 7.12528 12.6233 7.12505 12.002C7.12482 11.3806 6.62095 10.8771 5.99963 10.8774C5.37831 10.8776 4.87482 11.3815 4.87505 12.0028Z" fill="#8C9196" stroke="#8C9196"/>
</svg>
