<svg width="148" height="88" viewBox="0 0 148 88" fill="none" xmlns="http://www.w3.org/2000/svg">
<circle cx="74" cy="44" r="44" fill="#E3EEF9"/>
<rect x="29" y="44" width="28" height="4" rx="2" fill="#29669F"/>
<rect y="54" width="54" height="4" rx="2" fill="#85BFE9"/>
<rect x="11" y="66" width="47" height="4" rx="2" fill="#29669F"/>
<rect x="63" y="16" width="85" height="59" rx="4" fill="#3688D3"/>
<path d="M63 20C63 17.7909 64.7909 16 67 16H144C146.209 16 148 17.7909 148 20V28.9852C148 30.2269 147.423 31.3982 146.439 32.1554L109.355 60.6881C107.957 61.7639 106.019 61.7966 104.585 60.7687L64.6693 32.1514C63.6215 31.4001 63 30.1898 63 28.9005V20Z" fill="#29669F"/>
<path d="M63 20C63 17.7909 64.7909 16 67 16H144C146.209 16 148 17.7909 148 20V27.9274C148 29.2271 147.369 30.4457 146.307 31.1952L107.807 58.3717C106.424 59.3479 104.576 59.3479 103.193 58.3717L64.6933 31.1952C63.6315 30.4457 63 29.2271 63 27.9274V20Z" fill="#85BFE9"/>
</svg>
