<svg width="16" height="16" viewBox="0 0 16 16" fill="none" xmlns="http://www.w3.org/2000/svg">
<path d="M3 2.5L13 13.5" stroke="#BABEC3" stroke-width="1.6" stroke-linecap="round" stroke-linejoin="round"/>
<path d="M9.68098 9.8499C9.22219 10.2702 8.62193 10.5023 7.99973 10.4999C7.49515 10.4998 7.00239 10.3471 6.58624 10.0618C6.17008 9.77642 5.85001 9.37182 5.66811 8.90117C5.4862 8.43051 5.45097 7.91583 5.56705 7.42477C5.68313 6.93372 5.94509 6.48929 6.31848 6.1499" stroke="#BABEC3" stroke-width="1.6" stroke-linecap="round" stroke-linejoin="round"/>
<path d="M4.625 4.2876C2.075 5.5751 1 8.0001 1 8.0001C1 8.0001 3 12.5001 8 12.5001C9.17161 12.5096 10.3286 12.2397 11.375 11.7126" stroke="#BABEC3" stroke-width="1.6" stroke-linecap="round" stroke-linejoin="round"/>
<path d="M13.0373 10.5688C14.3998 9.35002 14.9998 8.00002 14.9998 8.00002C14.9998 8.00002 12.9998 3.50002 7.9998 3.50002C7.56634 3.49916 7.13357 3.5347 6.70605 3.60627" stroke="#BABEC3" stroke-width="1.6" stroke-linecap="round" stroke-linejoin="round"/>
<path d="M8.46875 5.54395C9.0004 5.64468 9.48487 5.91561 9.84903 6.31585C10.2132 6.71609 10.4373 7.22392 10.4875 7.7627" stroke="#BABEC3" stroke-width="1.6" stroke-linecap="round" stroke-linejoin="round"/>
</svg>
