<svg width="24" height="24" viewBox="0 0 24 24" fill="none" xmlns="http://www.w3.org/2000/svg">
<g clip-path="url(#clip0_2497_100)">
<path d="M22.5595 2.59369H14.3058C14.2945 2.59369 14.2844 2.58765 14.2797 2.57794L13.4284 0.851257C13.1882 0.362549 12.681 0.046875 12.136 0.046875H7.14642C6.35211 0.046875 5.70593 0.693237 5.70593 1.48773V2.90002H4.29309C3.49896 2.90002 2.85278 3.5462 2.85278 4.34052V5.75281H1.44049C0.646179 5.75281 0 6.39899 0 7.1933V18.8498C0 19.6441 0.646179 20.2903 1.44049 20.2903H16.8538C17.6481 20.2903 18.2943 19.6441 18.2943 18.8498V17.4373H19.7067C20.501 17.4373 21.1472 16.7911 21.1472 15.997V14.5847H22.5595C23.3538 14.5847 24 13.9385 24 13.1442V4.03455C24 3.24005 23.3538 2.59369 22.5595 2.59369V2.59369ZM16.8538 18.8785H1.44049C1.42474 18.8785 1.41174 18.8657 1.41174 18.8498V7.1933C1.41174 7.17737 1.42474 7.16455 1.44049 7.16455H6.43048C6.43524 7.16455 6.43982 7.1662 6.44385 7.1684C6.4444 7.16876 6.44513 7.16858 6.44568 7.16895C6.44733 7.17004 6.44824 7.17206 6.44971 7.17334C6.45209 7.17572 6.45483 7.17773 6.4563 7.18066L7.30792 8.9079C7.55237 9.40338 8.04749 9.71136 8.59991 9.71136H16.8538C16.8576 9.71136 16.8615 9.7121 16.8649 9.71356C16.8752 9.71796 16.8823 9.72821 16.8823 9.74011C16.8823 14.7184 16.8825 18.8044 16.8825 18.8498C16.8825 18.8657 16.8697 18.8785 16.8538 18.8785ZM19.7355 15.997C19.7355 16.0128 19.7227 16.0256 19.7069 16.0256H18.2943V9.74011C18.2943 8.94562 17.6479 8.29944 16.8536 8.29944H8.59991C8.58929 8.29944 8.57904 8.29303 8.57428 8.28333L7.72247 6.55609C7.47821 6.06116 6.98328 5.75281 6.43066 5.75281H4.26453V4.34052C4.26453 4.32458 4.27734 4.31177 4.29309 4.31177H9.28326C9.29425 4.31177 9.30414 4.31781 9.30908 4.32806L10.1609 6.0553C10.4055 6.55078 10.9005 6.85858 11.4527 6.85858H19.7069C19.7227 6.85858 19.7355 6.8714 19.7355 6.88733V15.997ZM22.5883 13.1442C22.5883 13.1602 22.5754 13.173 22.5595 13.173H21.1472V6.88733C21.1472 6.09302 20.5012 5.44684 19.7069 5.44684H11.4527C11.4419 5.44684 11.4318 5.44043 11.4269 5.43054L10.5753 3.70386C10.3312 3.20801 9.83606 2.90002 9.28326 2.90002H7.11768V1.48773C7.11768 1.47162 7.13049 1.45862 7.14624 1.45862H12.1359C12.1467 1.45862 12.1567 1.46466 12.1617 1.47473L13.0135 3.20251C13.2579 3.69763 13.7531 4.00543 14.3058 4.00543H22.5595C22.5753 4.00543 22.5881 4.01843 22.5881 4.03473V13.1442H22.5883Z" fill="#2E75B7"/>
<path d="M12.5438 15.8093C12.1539 15.8093 11.8379 16.1254 11.8379 16.5152V16.9233C11.8379 17.3132 12.1539 17.6292 12.5438 17.6292C12.9336 17.6292 13.2496 17.3132 13.2496 16.9233V16.5152C13.2496 16.1254 12.9336 15.8093 12.5438 15.8093Z" fill="#2E75B7"/>
<path d="M14.6009 15.8093C14.2111 15.8093 13.895 16.1254 13.895 16.5152V16.9233C13.895 17.3132 14.2111 17.6292 14.6009 17.6292C14.9907 17.6292 15.3068 17.3132 15.3068 16.9233V16.5152C15.3068 16.1254 14.9907 15.8093 14.6009 15.8093Z" fill="#2E75B7"/>
</g>
<defs>
<clipPath id="clip0_2497_100">
<rect width="24" height="24" fill="white"/>
</clipPath>
</defs>
</svg>
