<svg width="25" height="24" viewBox="0 0 25 24" fill="none" xmlns="http://www.w3.org/2000/svg">
<path d="M10.625 18H1.875C1.64294 18 1.42038 17.9057 1.25628 17.7379C1.09219 17.5701 1 17.3426 1 17.1053V1.89474C1 1.65744 1.09219 1.42986 1.25628 1.26206C1.42038 1.09427 1.64294 1 1.875 1H7.70469C7.89388 1.0008 8.07786 1.06351 8.22969 1.17895L11.2703 3.50526C11.4221 3.62071 11.6061 3.68341 11.7953 3.68421H21.125C21.3571 3.68421 21.5796 3.77848 21.7437 3.94627C21.9078 4.11407 22 4.34165 22 4.57895V8.15789" stroke="black" stroke-width="1.6" stroke-linecap="round" stroke-linejoin="round"/>
<path d="M21 17L24 14L21 11" stroke="black" stroke-width="1.6" stroke-linecap="round" stroke-linejoin="round"/>
<path d="M15 18C15.3224 16.8552 16.049 15.8413 17.0657 15.1173C18.0824 14.3933 19.3317 14.0004 20.6174 14H24" stroke="black" stroke-width="1.6" stroke-linecap="round" stroke-linejoin="round"/>
</svg>
