<svg width="24" height="18" viewBox="0 0 24 18" fill="none" xmlns="http://www.w3.org/2000/svg">
<path d="M17.4875 14.2684C18.8619 14.2684 19.9761 13.2201 19.9761 11.9269C19.9761 10.6338 18.8619 9.58545 17.4875 9.58545C16.113 9.58545 14.9988 10.6338 14.9988 11.9269C14.9988 13.2201 16.113 14.2684 17.4875 14.2684Z" stroke="#BABEC3" stroke-width="1.6" stroke-linecap="round" stroke-linejoin="round"/>
<path d="M14.2729 16.6098C14.4557 15.9382 14.8708 15.343 15.4528 14.918C16.0348 14.4929 16.7507 14.2622 17.4875 14.2622C18.2242 14.2622 18.9401 14.4929 19.5221 14.918C20.1041 15.343 20.5192 15.9382 20.702 16.6098" stroke="#BABEC3" stroke-width="1.6" stroke-linecap="round" stroke-linejoin="round"/>
<path d="M1 15.8292V1.78049C1 1.57349 1.0874 1.37497 1.24297 1.2286C1.39854 1.08223 1.60954 1 1.82956 1H7.35648C7.53585 1.00069 7.71028 1.0554 7.85422 1.1561L10.7369 3.18536C10.8809 3.28606 11.0553 3.34077 11.2347 3.34146H18.4207C18.6407 3.34146 18.8517 3.42369 19.0073 3.57006C19.1629 3.71643 19.2503 3.91495 19.2503 4.12195V5.68292" stroke="#BABEC3" stroke-width="1.6" stroke-linecap="round" stroke-linejoin="round"/>
<path d="M10.9547 15.8294H1L4.31823 7.37416H10.1251L12.6138 5.68311H22.5685L21.7389 7.79692" stroke="#BABEC3" stroke-width="1.6" stroke-linecap="round" stroke-linejoin="round"/>
</svg>
