<svg width="24" height="18" viewBox="0 0 24 18" fill="none" xmlns="http://www.w3.org/2000/svg">
<path d="M1 17V1.84211C1 1.61877 1.08872 1.40457 1.24665 1.24665C1.40457 1.08872 1.61877 1 1.84211 1H7.45263C7.63472 1.00075 7.81178 1.05977 7.95789 1.16842L10.8842 3.35789C11.0303 3.46655 11.2074 3.52557 11.3895 3.52632H18.6842C18.9076 3.52632 19.1217 3.61504 19.2797 3.77296C19.4376 3.93089 19.5263 4.14508 19.5263 4.36842V6.89474" stroke="#BABEC3" stroke-width="1.6" stroke-linecap="round" stroke-linejoin="round"/>
<path d="M1 16.9998L4.15789 9.10506C4.21948 8.94899 4.32684 8.8152 4.46586 8.72127C4.60488 8.62733 4.76906 8.57765 4.93684 8.57874H10.0105C10.1746 8.57699 10.335 8.52961 10.4737 8.4419L12.5789 7.03137C12.7176 6.94366 12.878 6.89628 13.0421 6.89453H21.7263C21.8595 6.89452 21.9907 6.92609 22.1093 6.98664C22.2279 7.0472 22.3305 7.13501 22.4085 7.24288C22.4866 7.35075 22.538 7.47559 22.5585 7.60717C22.579 7.73875 22.5679 7.8733 22.5263 7.99979L19.5263 16.9998H1Z" stroke="#BABEC3" stroke-width="1.6" stroke-linecap="round" stroke-linejoin="round"/>
</svg>
