<svg width="24" height="24" viewBox="0 0 24 24" fill="none" xmlns="http://www.w3.org/2000/svg">
<rect y="24" width="24" height="24" rx="4" transform="rotate(-90 0 24)" fill="#EDF6FF"/>
<path d="M9.16729 6.43656C9.05809 6.47551 8.96493 6.54103 8.89953 6.62486C8.83414 6.70869 8.79944 6.80707 8.79981 6.9076V17.0924C8.79944 17.1929 8.83414 17.2913 8.89953 17.3751C8.96493 17.459 9.05809 17.5245 9.16729 17.5635C9.27811 17.6001 9.3989 17.6094 9.5157 17.5903C9.63249 17.5711 9.74051 17.5243 9.82725 17.4552L15.8269 12.3628C15.9378 12.2655 15.9998 12.1354 15.9998 12C15.9998 11.8646 15.9378 11.7345 15.8269 11.6372L9.82725 6.54477C9.74051 6.47569 9.63249 6.42886 9.5157 6.40971C9.3989 6.39056 9.27811 6.39987 9.16729 6.43656Z" fill="#1F5199"/>
</svg>
