<svg width="24" height="25" viewBox="0 0 24 25" fill="none" xmlns="http://www.w3.org/2000/svg">
<path d="M20.25 18.7373V9.31539C20.2483 9.21159 20.2259 9.10918 20.184 9.01419C20.1422 8.9192 20.0817 8.83354 20.0062 8.76226L12.5062 1.94664C12.368 1.82015 12.1874 1.75 12 1.75C11.8126 1.75 11.632 1.82015 11.4937 1.94664L3.99375 8.76226C3.91828 8.83354 3.85783 8.9192 3.81597 9.01419C3.77411 9.10918 3.75168 9.21159 3.75 9.31539V18.7373" stroke="black" stroke-width="1.6" stroke-linecap="round" stroke-linejoin="round"/>
<path d="M1.5 18.7373H22.5" stroke="black" stroke-width="1.6" stroke-linecap="round" stroke-linejoin="round"/>
<path d="M14.25 18.7373V13.4873C14.25 13.2884 14.171 13.0976 14.0303 12.957C13.8897 12.8163 13.6989 12.7373 13.5 12.7373H10.5C10.3011 12.7373 10.1103 12.8163 9.96967 12.957C9.82902 13.0976 9.75 13.2884 9.75 13.4873V18.7373" stroke="black" stroke-width="1.6" stroke-linecap="round" stroke-linejoin="round"/>
</svg>
