<svg width="182" height="49" viewBox="0 0 182 49" fill="none" xmlns="http://www.w3.org/2000/svg">
<path d="M17.7009 11.4058V4.0287C24.344 3.65985 32.0899 8.82378 33.5615 17.6762C34.8492 25.4221 31.721 30.9549 27.6599 34.2746H16.9669C20.2866 30.5861 25.4505 27.2664 26.1882 22.1025C26.9259 15.4631 22.1309 11.7746 17.7009 11.4058Z" fill="#2E75B7"/>
<path d="M16.2332 11.4058V4.0287C9.5901 3.65985 1.84419 8.82378 0.372564 17.6762C-0.915108 25.4221 2.21305 30.9549 6.2742 34.2746H16.9672C13.6475 30.5861 8.48355 27.2664 7.74584 22.1025C7.00814 15.4631 11.8032 11.7746 16.2332 11.4058Z" fill="#2E75B7"/>
<path d="M16.9595 26.7396C17.7566 26.7396 18.4659 26.6168 19.0876 26.3712C19.7092 26.1255 20.1979 25.7696 20.5539 25.3034C20.9098 24.8372 21.0878 24.2682 21.0878 23.5964V23.5814C21.0878 22.7643 20.8246 22.1276 20.2982 21.6714C19.7769 21.2152 18.9973 20.8743 17.9596 20.6488L16.779 20.3931C16.383 20.3029 16.0622 20.1976 15.8165 20.0773C15.5759 19.957 15.3979 19.8166 15.2826 19.6562C15.1724 19.4958 15.1172 19.3128 15.1172 19.1072V19.0922C15.1172 18.8666 15.1874 18.6636 15.3278 18.4831C15.4681 18.3026 15.6737 18.1598 15.9444 18.0545C16.2201 17.9442 16.5585 17.8891 16.9595 17.8891C17.3305 17.8891 17.6563 17.9442 17.9371 18.0545C18.2178 18.1598 18.4434 18.3177 18.6138 18.5282C18.7893 18.7338 18.8971 18.9894 18.9372 19.2952V19.3253H20.9449V19.2727C20.9098 18.641 20.7218 18.0971 20.3809 17.6409C20.0451 17.1797 19.5838 16.8263 18.9973 16.5807C18.4108 16.33 17.7265 16.2047 16.9445 16.2047C16.1825 16.2047 15.5057 16.33 14.9142 16.5807C14.3276 16.8263 13.8639 17.1772 13.5231 17.6334C13.1872 18.0896 13.0192 18.631 13.0192 19.2576V19.2727C13.0192 19.8091 13.1345 20.2703 13.3651 20.6563C13.6008 21.0423 13.9442 21.3631 14.3953 21.6188C14.8465 21.8745 15.4004 22.075 16.0572 22.2204L17.2302 22.476C17.897 22.6264 18.3556 22.8019 18.6063 23.0024C18.862 23.1979 18.9898 23.4661 18.9898 23.807V23.822C18.9898 24.0677 18.9171 24.2857 18.7717 24.4762C18.6314 24.6617 18.4133 24.8046 18.1175 24.9048C17.8268 25.0051 17.4558 25.0552 17.0046 25.0552C16.5635 25.0552 16.1925 25.0001 15.8917 24.8898C15.596 24.7795 15.3654 24.6216 15.1999 24.4161C15.0345 24.2105 14.9267 23.9724 14.8766 23.7017L14.8691 23.6641H12.8613V23.7092C12.8914 24.3559 13.0844 24.9048 13.4403 25.356C13.7963 25.8072 14.2775 26.1506 14.8841 26.3862C15.4957 26.6218 16.1875 26.7396 16.9595 26.7396ZM16.5835 27.9728H17.4032V14.9564H16.5835V27.9728Z" fill="#2E75B7"/>
<path d="M26.1887 35.75H7.74609L16.9674 44.9713L26.1887 35.75Z" fill="#2E75B7"/>
<path d="M59.595 34.7652C57.6109 34.7652 55.9019 34.2839 54.4678 33.3214C53.0535 32.3391 51.973 31.0328 51.2266 29.4023C50.4997 27.7719 50.1363 26.0039 50.1363 24.0984C50.1363 22.193 50.4997 20.4348 51.2266 18.824C51.973 17.1935 53.0535 15.897 54.4678 14.9344C55.9019 13.9522 57.6109 13.4611 59.595 13.4611C62.0112 13.4611 63.9854 14.1683 65.5177 15.5827C67.0499 16.9971 68.0419 18.824 68.4938 21.0634H64.0444C63.8086 20.0419 63.2979 19.1874 62.5121 18.4999C61.746 17.8123 60.7933 17.4685 59.6539 17.4685C58.0824 17.4685 56.8939 18.0873 56.0885 19.3249C55.3027 20.5428 54.9098 22.134 54.9098 24.0984C54.9098 26.1021 55.3027 27.713 56.0885 28.9309C56.8939 30.1488 58.0824 30.7578 59.6539 30.7578C60.7736 30.7578 61.7067 30.4238 62.4532 29.7559C63.2193 29.088 63.7301 28.2925 63.9854 27.3692H68.3759C67.9437 29.53 66.9615 31.3078 65.4293 32.7026C63.9167 34.0777 61.9719 34.7652 59.595 34.7652ZM76.4883 34.7652C74.5632 34.7652 73.0702 34.0384 72.0094 32.5847C70.9683 31.1114 70.4477 29.147 70.4477 26.6915C70.4477 24.2163 70.9879 22.2519 72.0684 20.7982C73.1488 19.3249 74.6418 18.5883 76.5472 18.5883C77.8634 18.5883 78.8751 18.8829 79.5822 19.4722C80.2894 20.0419 80.7805 20.6214 81.0556 21.2107H81.2913V18.9124H85.9175V34.5H81.2913V31.9954H81.0556C80.7609 32.624 80.2501 33.2428 79.5233 33.8517C78.8161 34.4607 77.8045 34.7652 76.4883 34.7652ZM78.2268 31.0819C79.2679 31.0819 80.0439 30.6498 80.5546 29.7854C81.0654 28.9014 81.3208 27.8603 81.3208 26.662C81.3208 25.4833 81.0654 24.4619 80.5546 23.5975C80.0439 22.7135 79.2679 22.2715 78.2268 22.2715C77.1464 22.2715 76.3508 22.7037 75.84 23.568C75.3489 24.4127 75.1034 25.4342 75.1034 26.6325C75.1034 27.8505 75.3489 28.9014 75.84 29.7854C76.3508 30.6498 77.1464 31.0819 78.2268 31.0819ZM95.0877 34.7652C93.7715 34.7652 92.6322 34.5196 91.6696 34.0285C90.707 33.5374 89.9704 32.899 89.4596 32.1132C88.9685 31.3078 88.723 30.4631 88.723 29.5791V29.3729H93.1724V29.5497C93.1724 30.0015 93.3492 30.4042 93.7028 30.7578C94.0564 31.0917 94.5573 31.2587 95.2055 31.2587C95.7556 31.2587 96.1976 31.131 96.5315 30.8757C96.8655 30.6006 97.0325 30.247 97.0325 29.8149C97.0325 29.422 96.8753 29.1077 96.561 28.872C96.2467 28.6362 95.8538 28.4791 95.3823 28.4005L93.7028 28.0469C92.5634 27.8505 91.5124 27.3986 90.5499 26.6915C89.5873 25.9646 89.106 24.8547 89.106 23.3618C89.106 21.8492 89.6463 20.6804 90.7267 19.8553C91.8268 19.0106 93.2313 18.5883 94.9404 18.5883C96.2172 18.5883 97.3173 18.8142 98.2406 19.266C99.1638 19.7178 99.8612 20.3169 100.333 21.0634C100.804 21.7902 101.04 22.5662 101.04 23.3912V23.5386H96.5905V23.4502C96.5905 23.0573 96.4431 22.6939 96.1485 22.3599C95.8538 22.026 95.402 21.859 94.793 21.859C94.2823 21.859 93.8697 21.9867 93.5554 22.2421C93.2608 22.4778 93.1134 22.8117 93.1134 23.2439C93.1134 24.01 93.7519 24.511 95.0287 24.7467L96.8557 25.1592C98.0932 25.4342 99.1344 25.9352 99.9791 26.662C100.843 27.3888 101.276 28.4201 101.276 29.7559C101.276 30.7774 101.001 31.6712 100.451 32.4374C99.9201 33.1838 99.1835 33.7633 98.2406 34.1759C97.2976 34.5688 96.2467 34.7652 95.0877 34.7652ZM103.726 12.6361H108.323V21.1813H108.559C108.893 20.4544 109.433 19.8455 110.179 19.3544C110.945 18.8436 111.869 18.5883 112.949 18.5883C114.992 18.5883 116.406 19.2365 117.192 20.533C117.978 21.8099 118.371 23.2439 118.371 24.8351V34.5H113.774V25.6307C113.774 24.6092 113.548 23.8038 113.096 23.2144C112.645 22.6251 111.967 22.3305 111.063 22.3305C110.16 22.3305 109.472 22.6349 109.001 23.2439C108.549 23.8529 108.323 24.6485 108.323 25.6307V34.5H103.726V12.6361ZM129.941 34.7652C128.016 34.7652 126.375 34.2643 125.02 33.2624C123.684 32.2606 122.682 30.9542 122.014 29.3434C121.347 27.7326 121.013 26.0137 121.013 24.1868C121.013 22.301 121.356 20.5428 122.044 18.9124C122.751 17.2819 123.812 15.9658 125.226 14.9639C126.641 13.9621 128.369 13.4611 130.412 13.4611C132.75 13.4611 134.665 14.1192 136.158 15.4354C137.671 16.7319 138.732 18.4311 139.341 20.533H134.508C134.253 19.6098 133.781 18.8731 133.094 18.3231C132.406 17.773 131.522 17.498 130.442 17.498C128.89 17.498 127.701 18.1168 126.876 19.3544C126.051 20.592 125.639 22.2421 125.639 24.3047C125.639 26.4656 126.081 28.1451 126.965 29.3434C127.849 30.5221 129.086 31.1114 130.678 31.1114C132.053 31.1114 133.094 30.689 133.801 29.8443C134.528 28.9996 134.901 28.0076 134.921 26.8683V26.4852H131.061V23.2144H139.429V34.5H136.04V31.5828H135.805C134.646 33.7044 132.691 34.7652 129.941 34.7652ZM150.756 13.8737C152.387 13.8737 153.762 14.2076 154.882 14.8755C156.021 15.5434 156.866 16.4274 157.416 17.5275C157.966 18.6275 158.241 19.816 158.241 21.0929C158.241 22.3501 157.966 23.5189 157.416 24.5994C156.885 25.6601 156.051 26.5147 154.911 27.1629C153.791 27.8112 152.407 28.1353 150.756 28.1353H147.427V34.5H142.918V13.8737H150.756ZM150.02 24.3636C151.081 24.3636 151.974 24.1181 152.701 23.627C153.428 23.1162 153.791 22.2715 153.791 21.0929C153.791 19.9142 153.428 19.0892 152.701 18.6177C151.994 18.1463 151.1 17.9105 150.02 17.9105H147.427V24.3636H150.02ZM167.816 34.7652C166.165 34.7652 164.731 34.4411 163.513 33.7928C162.315 33.1446 161.402 32.2999 160.773 31.2587C160.164 30.1979 159.86 29.0979 159.86 27.9585V27.7228H164.898V27.929C164.898 28.6362 165.154 29.2845 165.665 29.8738C166.175 30.4631 166.922 30.7578 167.904 30.7578C168.749 30.7578 169.426 30.5417 169.937 30.1095C170.448 29.6774 170.703 29.1077 170.703 28.4005C170.703 27.7719 170.477 27.271 170.025 26.8977C169.574 26.5048 169.024 26.2396 168.375 26.1021L166.018 25.6307C164.643 25.3164 163.356 24.727 162.158 23.8627C160.96 22.9984 160.361 21.584 160.361 19.6196C160.361 18.3427 160.665 17.2426 161.274 16.3194C161.903 15.3961 162.767 14.6889 163.867 14.1978C164.967 13.7067 166.215 13.4611 167.609 13.4611C169.2 13.4611 170.576 13.7656 171.735 14.3746C172.894 14.9836 173.768 15.7791 174.357 16.7614C174.946 17.7239 175.241 18.7356 175.241 19.7964V19.9437H170.202V19.8553C170.202 19.2267 169.976 18.6472 169.525 18.1168C169.092 17.5668 168.395 17.2917 167.432 17.2917C166.686 17.2917 166.087 17.498 165.635 17.9105C165.203 18.3231 164.987 18.8633 164.987 19.5312C164.987 20.1794 165.232 20.6902 165.723 21.0634C166.215 21.4367 166.804 21.692 167.491 21.8295L169.878 22.3599C171.43 22.6939 172.756 23.3225 173.856 24.2458C174.956 25.169 175.506 26.5147 175.506 28.2826C175.506 29.5791 175.172 30.7185 174.504 31.7007C173.836 32.6829 172.913 33.4392 171.735 33.9696C170.576 34.5 169.269 34.7652 167.816 34.7652Z" fill="#2E75B7"/>
</svg>
