<svg width="34" height="42" viewBox="0 0 34 42" fill="none" xmlns="http://www.w3.org/2000/svg">
<path d="M17.7011 8.37707V1.00002C24.3442 0.63116 32.0901 5.7951 33.5618 14.6476C34.8494 22.3935 31.7213 27.9262 27.6601 31.2459H16.9672C20.2868 27.5574 25.4508 24.2377 26.1885 19.0738C26.9262 12.4344 22.1311 8.74592 17.7011 8.37707Z" fill="#2E75B7"/>
<path d="M16.2332 8.37707V1.00002C9.5901 0.63116 1.84419 5.7951 0.372564 14.6476C-0.915108 22.3935 2.21305 27.9262 6.2742 31.2459H16.9672C13.6475 27.5574 8.48355 24.2377 7.74584 19.0738C7.00814 12.4344 11.8032 8.74592 16.2332 8.37707Z" fill="#2E75B7"/>
<path d="M16.9598 23.7109C17.7568 23.7109 18.4662 23.5881 19.0878 23.3425C19.7094 23.0968 20.1982 22.7409 20.5541 22.2747C20.91 21.8085 21.088 21.2395 21.088 20.5678V20.5527C21.088 19.7356 20.8248 19.0989 20.2985 18.6427C19.7771 18.1865 18.9976 17.8457 17.9599 17.6201L16.7793 17.3644C16.3833 17.2742 16.0624 17.1689 15.8168 17.0486C15.5761 16.9283 15.3982 16.7879 15.2829 16.6275C15.1726 16.4671 15.1175 16.2841 15.1175 16.0786V16.0635C15.1175 15.8379 15.1876 15.6349 15.328 15.4544C15.4684 15.274 15.6739 15.1311 15.9446 15.0258C16.2203 14.9155 16.5587 14.8604 16.9598 14.8604C17.3307 14.8604 17.6566 14.9155 17.9373 15.0258C18.218 15.1311 18.4436 15.289 18.6141 15.4995C18.7895 15.7051 18.8973 15.9607 18.9374 16.2665V16.2966H20.9451V16.244C20.91 15.6123 20.7221 15.0684 20.3812 14.6122C20.0453 14.151 19.5841 13.7976 18.9976 13.552C18.411 13.3013 17.7268 13.176 16.9447 13.176C16.1827 13.176 15.506 13.3013 14.9144 13.552C14.3279 13.7976 13.8642 14.1485 13.5233 14.6047C13.1874 15.0609 13.0195 15.6023 13.0195 16.2289V16.244C13.0195 16.7804 13.1348 17.2416 13.3654 17.6276C13.601 18.0136 13.9444 18.3344 14.3956 18.5901C14.8467 18.8458 15.4007 19.0463 16.0574 19.1917L17.2305 19.4473C17.8972 19.5977 18.3559 19.7732 18.6065 19.9737C18.8622 20.1692 18.99 20.4374 18.99 20.7783V20.7933C18.99 21.039 18.9174 21.257 18.772 21.4475C18.6316 21.633 18.4135 21.7759 18.1178 21.8762C17.827 21.9764 17.456 22.0266 17.0049 22.0266C16.5637 22.0266 16.1928 21.9714 15.892 21.8611C15.5962 21.7508 15.3656 21.5929 15.2002 21.3874C15.0347 21.1819 14.927 20.9437 14.8768 20.673L14.8693 20.6354H12.8616V20.6805C12.8917 21.3272 13.0847 21.8762 13.4406 22.3273C13.7965 22.7785 14.2778 23.1219 14.8843 23.3575C15.4959 23.5931 16.1877 23.7109 16.9598 23.7109ZM16.5838 24.9442H17.4034V11.9277H16.5838V24.9442Z" fill="#2E75B7"/>
<path d="M26.1885 32.7213H7.74585L16.9672 41.9426L26.1885 32.7213Z" fill="#2E75B7"/>
</svg>
