<svg width="8" height="12" viewBox="0 0 8 12" fill="none" xmlns="http://www.w3.org/2000/svg">
<path d="M4.0127 11.9912H4.83301V10.8428C6.44629 10.7129 7.78613 9.79004 7.78613 8.14941V8.13574C7.78613 6.70703 6.80176 5.98242 5.04492 5.55859L4.83301 5.51074V2.37305C5.75586 2.48926 6.41211 3.05664 6.50098 3.97266V3.98633L7.69043 3.97949V3.97266C7.63574 2.46875 6.41211 1.44336 4.83301 1.2998V0.144531H4.0127V1.2998C2.39258 1.4502 1.2373 2.44824 1.2373 3.91113V3.9248C1.2373 5.26465 2.15332 6.02344 3.85547 6.43359L4.0127 6.47461V9.7627C2.82324 9.63281 2.29688 8.95605 2.17383 8.1084V8.09473L0.984375 8.10156V8.1084C1.03906 9.69434 2.38574 10.6855 4.0127 10.8359V11.9912ZM2.42676 3.84277V3.8291C2.42676 3.17285 2.97363 2.5166 4.0127 2.37305V5.3125C2.83691 5.02539 2.42676 4.50586 2.42676 3.84277ZM4.87402 6.67969C6.22754 7.00781 6.59668 7.48633 6.59668 8.23145V8.24512C6.59668 9.03125 6.10449 9.67383 4.83301 9.77637V6.67285L4.87402 6.67969Z" fill="#8C9196"/>
</svg>
