<svg width="6" height="4" viewBox="0 0 6 4" fill="none" xmlns="http://www.w3.org/2000/svg">
<path d="M5.08632 0.937611C5.07171 0.896663 5.04714 0.861726 5.0157 0.837202C4.98427 0.812679 4.94738 0.799667 4.90967 0.799806H1.09037C1.05267 0.799667 1.01578 0.812679 0.984346 0.837202C0.952911 0.861726 0.928341 0.896663 0.913731 0.937611C0.899973 0.979169 0.896483 1.02447 0.903664 1.06826C0.910846 1.11206 0.928405 1.15257 0.954312 1.1851L2.86396 3.43498C2.90046 3.47656 2.94925 3.4998 3.00002 3.4998C3.0508 3.4998 3.09959 3.47656 3.13609 3.43498L5.04574 1.1851C5.07164 1.15257 5.0892 1.11206 5.09638 1.06826C5.10357 1.02447 5.10008 0.979169 5.08632 0.937611Z" fill="#DB2525"/>
</svg>
