<svg width="225" height="125" viewBox="0 0 225 125" fill="none" xmlns="http://www.w3.org/2000/svg">
<rect x="0.0244141" y="16" width="156.233" height="22.2198" rx="11.1099" fill="#E6EEFB"/>
<rect x="47.2412" y="38.2197" width="95.8231" height="19.4424" rx="9.72118" fill="#E6EEFB"/>
<rect x="125.705" y="38.2197" width="95.8231" height="19.4424" rx="9.72118" fill="white"/>
<rect y="38.1606" width="62" height="20" rx="10" fill="white"/>
<rect x="11.1338" y="57.6621" width="213.866" height="22.2198" rx="11.1099" fill="#E6EEFB"/>
<rect x="72.9326" y="102.102" width="118.737" height="22.2198" rx="11.1099" fill="#E6EEFB"/>
<g clip-path="url(#clip0_2449_2263)">
<rect x="47.2412" y="79.8818" width="156.928" height="22.2198" rx="11.1099" fill="#E6EEFB"/>
<rect x="-19.418" y="79.8818" width="142.346" height="22.2198" rx="11.1099" fill="white"/>
<rect x="167.367" y="79.8818" width="80.5469" height="22.2198" rx="11.1099" fill="white"/>
</g>
<path d="M124.336 75.5215C116.905 80.371 107.91 82.2183 99.1693 80.6901C90.4287 79.1618 82.5942 74.372 77.2497 67.2888C71.9051 60.2057 69.4492 51.3575 70.3783 42.533C71.3074 33.7085 75.5523 25.5659 82.2549 19.7511C88.9574 13.9364 97.6176 10.8833 106.485 11.2089C115.352 11.5346 123.765 15.2148 130.023 21.5056C136.281 27.7963 139.917 36.2284 140.196 45.0973C140.476 53.9662 137.377 62.6103 131.528 69.2824" stroke="#2E75B7" stroke-width="3.57285" stroke-linecap="round" stroke-linejoin="round"/>
<path d="M123.317 86.614C113.348 91.0829 102.08 91.7099 91.6767 88.3744C81.2737 85.039 72.4706 77.9765 66.9589 68.5442C61.4473 59.1119 59.6162 47.9753 61.8175 37.2748C64.0188 26.5743 70.0971 17.0649 78.8843 10.5741C87.6716 4.08332 98.5477 1.06915 109.423 2.11088C120.297 3.15261 130.403 8.17674 137.799 16.2177C145.194 24.2587 149.356 34.7491 149.486 45.6729C149.616 56.5967 145.704 67.1831 138.502 75.3975" stroke="#2E75B7" stroke-width="3.81811" stroke-linecap="round" stroke-linejoin="round"/>
<path d="M138.417 75.2164L162.407 101.65C164.429 103.879 164.269 107.322 162.05 109.354V109.354C159.813 111.401 156.338 111.236 154.305 108.987L124.5 76" stroke="#2E75B7" stroke-width="3.81811" stroke-linecap="round"/>
<defs>
<clipPath id="clip0_2449_2263">
<rect x="47.2412" y="79.8818" width="156.928" height="22.2198" rx="11.1099" fill="white"/>
</clipPath>
</defs>
</svg>
