<svg width="16" height="16" viewBox="0 0 16 16" fill="none" xmlns="http://www.w3.org/2000/svg">
<path d="M14.25 0.125H1.75C1.41848 0.125 1.10054 0.256696 0.866116 0.491116C0.631696 0.725537 0.5 1.04348 0.5 1.375V5.96094C0.5 12.9453 6.42188 15.2656 7.60938 15.6562C7.8631 15.7397 8.1369 15.7397 8.39062 15.6562C9.57812 15.2656 15.5 12.9453 15.5 5.96094V1.375C15.5 1.04348 15.3683 0.725537 15.1339 0.491116C14.8995 0.256696 14.5815 0.125 14.25 0.125ZM8 14.4688C7.00781 14.1406 2.35156 12.3125 1.80469 7H8V1.375H14.25V5.96094C14.2519 6.30806 14.2336 6.65499 14.1953 7H8V14.4688Z" fill="#8C9196"/>
</svg>
