<svg width="6" height="4" viewBox="0 0 6 4" fill="none" xmlns="http://www.w3.org/2000/svg">
<path d="M5.08632 3.06239C5.07171 3.10334 5.04714 3.13827 5.0157 3.1628C4.98427 3.18732 4.94738 3.20033 4.90967 3.20019H1.09037C1.05267 3.20033 1.01578 3.18732 0.984346 3.1628C0.952911 3.13827 0.928341 3.10334 0.913731 3.06239C0.899973 3.02083 0.896483 2.97553 0.903664 2.93174C0.910846 2.88794 0.928405 2.84743 0.954312 2.8149L2.86396 0.565022C2.90046 0.52344 2.94925 0.500195 3.00002 0.500195C3.0508 0.500195 3.09959 0.52344 3.13609 0.565022L5.04574 2.8149C5.07164 2.84743 5.0892 2.88794 5.09638 2.93174C5.10357 2.97553 5.10008 3.02083 5.08632 3.06239Z" fill="#0A9D21"/>
</svg>
