<svg width="24" height="24" viewBox="0 0 24 24" fill="none" xmlns="http://www.w3.org/2000/svg">
<rect width="24" height="24" rx="4" fill="#EDF6FF"/>
<path d="M17.5634 9.16729C17.5244 9.05809 17.4589 8.96493 17.375 8.89953C17.2912 8.83414 17.1928 8.79944 17.0923 8.79981H6.9075C6.80696 8.79944 6.70858 8.83414 6.62476 8.89953C6.54093 8.96493 6.47541 9.05809 6.43645 9.16729C6.39977 9.27811 6.39046 9.3989 6.40961 9.5157C6.42876 9.63249 6.47558 9.74051 6.54467 9.82725L11.6371 15.8269C11.7344 15.9378 11.8645 15.9998 11.9999 15.9998C12.1353 15.9998 12.2654 15.9378 12.3627 15.8269L17.4551 9.82725C17.5242 9.74051 17.571 9.63249 17.5902 9.5157C17.6093 9.3989 17.6 9.27811 17.5634 9.16729Z" fill="#1F5199"/>
</svg>
