<svg width="10" height="5" viewBox="0 0 10 5" fill="none" xmlns="http://www.w3.org/2000/svg">
<path d="M9.09686 0.354689C9.06817 0.286439 9.01992 0.228207 8.95819 0.187333C8.89646 0.146458 8.82402 0.12477 8.74998 0.125002H1.24998C1.17595 0.12477 1.1035 0.146458 1.04177 0.187333C0.980044 0.228207 0.931795 0.286439 0.903107 0.354689C0.87609 0.423956 0.869236 0.499456 0.883338 0.572455C0.89744 0.645455 0.931922 0.71297 0.982794 0.767189L4.73279 4.51719C4.80447 4.5865 4.90028 4.62524 4.99998 4.62524C5.09969 4.62524 5.19549 4.5865 5.26717 4.51719L9.01717 0.767189C9.06804 0.71297 9.10252 0.645455 9.11663 0.572455C9.13073 0.499456 9.12387 0.423956 9.09686 0.354689Z" fill="#5C5F62"/>
</svg>
