<svg width="80" height="80" viewBox="0 0 80 80" fill="none" xmlns="http://www.w3.org/2000/svg">
<circle cx="40" cy="40" r="37" fill="#E3EEF9"/>
<path d="M56.314 6.79078C48.9806 3.18824 40.661 2.11438 32.6532 3.73673C24.6454 5.35908 17.3998 9.58639 12.0468 15.7591C6.69385 21.9319 3.5346 29.7028 3.06196 37.8597C2.58932 46.0165 4.82988 54.1003 9.43407 60.85C14.0383 67.5997 20.7471 72.6356 28.514 75.172C36.2808 77.7084 44.6687 77.6027 52.3692 74.8712C60.0696 72.1398 66.6493 66.9364 71.0819 60.0728C75.5144 53.2091 77.5505 45.0713 76.8723 36.929" stroke="#2E75B7" stroke-width="6" stroke-linecap="round"/>
<path d="M21.5 34.5L39 49.5L70 19.5" stroke="#2E75B7" stroke-width="6" stroke-linecap="round" stroke-linejoin="round"/>
</svg>
